<?xml version="1.0" standalone="no"?>
<!DOCTYPE svg PUBLIC "-//W3C//DTD SVG 20010904//EN"
 "http://www.w3.org/TR/2001/REC-SVG-20010904/DTD/svg10.dtd">
<svg version="1.0" xmlns="http://www.w3.org/2000/svg"
 width="512.000000pt" height="512.000000pt" viewBox="0 0 512.000000 512.000000"
 preserveAspectRatio="xMidYMid meet">

<g transform="translate(0.000000,512.000000) scale(0.100000,-0.100000)"
fill="#000000" stroke="none">
<path d="M2547 5108 c-7 -3 -581 -579 -1277 -1279 l-1265 -1272 3 -121 c4
-227 65 -539 147 -762 89 -241 253 -530 415 -730 84 -104 263 -282 370 -367
318 -255 699 -436 1090 -517 335 -69 707 -69 1025 1 276 61 572 178 818 323
53 31 103 56 111 56 14 0 16 23 16 176 0 137 -3 174 -12 168 -7 -4 -33 -24
-58 -44 -76 -63 -230 -160 -325 -204 -225 -107 -488 -146 -773 -116 -438 47
-777 234 -1079 595 -243 291 -374 666 -374 1075 0 461 156 854 471 1183 333
348 696 509 1151 509 398 0 703 -124 875 -356 l44 -58 -2 677 -3 678 -130 68
c-328 173 -617 268 -925 304 -134 16 -296 23 -313 13z"/>
<path d="M4423 4907 l-503 -99 0 -44 c0 -42 2 -45 63 -85 332 -223 681 -609
898 -992 l44 -79 3 351 c1 193 1 507 0 699 l-3 347 -502 -98z"/>
<path d="M4940 2561 c0 -552 2 -1002 4 -1000 9 9 77 216 95 288 35 138 60 315
72 514 27 418 -31 867 -146 1145 l-24 57 -1 -1004z"/>
<path d="M3080 2919 c-327 -28 -596 -254 -702 -589 -20 -65 -23 -96 -23 -225
0 -176 19 -257 88 -390 50 -94 189 -241 279 -294 217 -126 486 -159 713 -87
255 81 472 329 530 608 38 176 4 385 -87 548 -167 297 -465 457 -798 429z"/>
<path d="M4884 1443 c-65 -118 -191 -310 -277 -426 -163 -218 -319 -375 -499
-504 -43 -30 -80 -59 -83 -64 -4 -5 172 -9 449 -9 l456 0 0 535 c0 294 -2 535
-4 535 -2 0 -21 -30 -42 -67z"/>
</g>
</svg>
